<svg version="1.1" xmlns="http://www.w3.org/2000/svg" xmlns:xlink="http://www.w3.org/1999/xlink" width="222.83124" height="349.2521"><g transform="translate(-113.47883,-0.72597)"><g data-paper-data="{&quot;isPaintingLayer&quot;:true}" fill="none" fill-rule="evenodd" stroke="#000000" stroke-width="none" stroke-linecap="round" stroke-linejoin="round" stroke-miterlimit="10" stroke-dasharray="" stroke-dashoffset="0" font-family="none" font-weight="none" font-size="none" text-anchor="none" style="mix-blend-mode: normal"><path d="M117.82235,328.37413c0,0 203.82096,-64.18425 150.58222,-272.09492c4.34473,-0.32147 95.39038,242.95991 -149.1856,273.95488z" data-paper-data="{&quot;origRot&quot;:0,&quot;origPos&quot;:null}" fill="#ffcc33" stroke-width="0.75"/><path d="M280.02399,47.23714c33.78058,4.25353 42.55337,39.88748 42.55337,39.88748c65.77879,245.4041 -165.17721,272.80656 -194.23142,257.3695l-10.11867,-16.24662c247.61686,-33.35359 150.41338,-272.63482 150.41338,-272.63482z" data-paper-data="{&quot;origRot&quot;:0,&quot;origPos&quot;:null}" fill="#ffe13d" stroke-width="0.75"/><path d="M114.69706,330.4628l9.38858,14.62274l-5.16341,-1.34878l-5.06841,-11.23215z" data-paper-data="{&quot;origRot&quot;:0,&quot;origPos&quot;:null}" fill="#964b00" stroke-width="0.75"/><path d="M260.54771,2.72597l16.56942,42.08627l-10.47237,7.49796l-24.39061,-44.82653z" data-paper-data="{&quot;origRot&quot;:0,&quot;origPos&quot;:null}" fill="#964b00" stroke-width="4"/><path d="M280.02399,47.23714c33.78058,4.25353 42.55337,39.88748 42.55337,39.88748c65.77879,245.4041 -165.17721,272.80656 -194.23142,257.3695l-10.11867,-16.24662c247.61686,-33.35359 150.41338,-272.63482 150.41338,-272.63482z" data-paper-data="{&quot;origRot&quot;:0,&quot;origPos&quot;:null}" fill="#ffe13d" stroke-width="4"/></g></g></svg>