<svg version="1.1" xmlns="http://www.w3.org/2000/svg" xmlns:xlink="http://www.w3.org/1999/xlink" width="66.32304" height="66.32305"><g transform="translate(-206.85431,-146.81773)"><g data-paper-data="{&quot;isPaintingLayer&quot;:true}" fill="none" fill-rule="nonzero" stroke="none" stroke-width="none" stroke-linecap="none" stroke-linejoin="miter" stroke-miterlimit="10" stroke-dasharray="" stroke-dashoffset="0" font-family="none" font-weight="none" font-size="none" text-anchor="none" style="mix-blend-mode: normal"><path d="M206.85432,179.97927c0,-18.3146 14.84692,-33.16153 33.16152,-33.16153c18.3146,0 33.16152,14.84692 33.16152,33.16153c0,18.31461 -14.84692,33.16152 -33.16152,33.16152c-18.3146,0 -33.16152,-14.84692 -33.16152,-33.16152z" data-paper-data="{&quot;origPos&quot;:null}" stroke="none" stroke-width="0" stroke-linecap="butt"/><path d="M236.20016,206.50005c0,0 4.27425,-5.23571 3.2538,-7.18928c-0.44808,-1.87222 -2.25632,-10.17306 0.58678,-10.21704c2.30388,-0.17146 3.63898,4.97019 3.6581,7.73993c0.01164,2.19534 -1.09868,5.36639 -1.09868,5.36639" data-paper-data="{&quot;origPos&quot;:null}" stroke="#ffffff" stroke-width="4" stroke-linecap="round"/><path d="M240.30486,188.06191c0,0 -0.77942,-7.12669 -0.8081,-9.18452c-0.02965,-2.1275 -0.44679,-6.35877 0.62488,-10.30275" data-paper-data="{&quot;origPos&quot;:null}" stroke="#ffffff" stroke-width="4" stroke-linecap="round"/><path d="M233.70005,160.86667c0,-3.81076 3.08924,-6.9 6.9,-6.9c3.81076,0 6.9,3.08924 6.9,6.9c0,3.81076 -3.08924,6.9 -6.9,6.9c-3.81076,0 -6.9,-3.08924 -6.9,-6.9z" data-paper-data="{&quot;origPos&quot;:null}" stroke="#ffffff" stroke-width="4" stroke-linecap="butt"/><path d="M228.50006,182.12501c0,0 1.50189,-5.36151 3.04487,-7.47401c1.18122,-1.61722 6.14232,-1.64169 7.98709,-1.52797c1.82839,0.33788 4.59757,5.14718 5.73167,5.99455c0.99395,0.74265 6.36137,-0.24257 6.36137,-0.24257" data-paper-data="{&quot;origPos&quot;:null}" stroke="#ffffff" stroke-width="4" stroke-linecap="round"/></g></g></svg>