<svg version="1.1" xmlns="http://www.w3.org/2000/svg" xmlns:xlink="http://www.w3.org/1999/xlink" width="66.32306" height="66.32306"><g transform="translate(-206.85431,-146.81774)"><g data-paper-data="{&quot;isPaintingLayer&quot;:true}" fill="none" fill-rule="nonzero" stroke="none" stroke-width="none" stroke-linecap="none" stroke-linejoin="miter" stroke-miterlimit="10" stroke-dasharray="" stroke-dashoffset="0" font-family="none" font-weight="none" font-size="none" text-anchor="none" style="mix-blend-mode: normal"><path d="M206.85432,179.97928c0,-18.3146 14.84692,-33.16153 33.16153,-33.16153c18.3146,0 33.16153,14.84692 33.16153,33.16153c0,18.3146 -14.84692,33.16153 -33.16153,33.16153c-18.3146,0 -33.16153,-14.84692 -33.16153,-33.16153z" data-paper-data="{&quot;origPos&quot;:null}" stroke="none" stroke-width="0" stroke-linecap="butt"/><path d="M233.40005,202.90002c0,0 2.71032,-3.07105 3.49868,-5.76639c0.78088,-2.66974 0.31245,-6.21139 2.40857,-8.03993c2.3569,-2.05602 5.49847,3.74482 6.94655,6.51704c1.02045,1.95357 0.3462,7.78928 0.3462,7.78928" data-paper-data="{&quot;origPos&quot;:null}" stroke="#ffffff" stroke-width="4" stroke-linecap="round"/><g data-paper-data="{&quot;origPos&quot;:null}" stroke="#ffffff" stroke-width="4"><path d="M240.30486,188.06192c0,0 -0.77942,-7.12669 -0.8081,-9.18452c-0.02965,-2.1275 -0.44679,-6.35877 0.62488,-10.30275" data-paper-data="{&quot;origPos&quot;:null}" stroke-linecap="round"/><path d="M233.70003,160.86667c0,-3.81076 3.08924,-6.9 6.9,-6.9c3.81076,0 6.9,3.08924 6.9,6.9c0,3.81076 -3.08924,6.9 -6.9,6.9c-3.81076,0 -6.9,-3.08924 -6.9,-6.9z" data-paper-data="{&quot;origPos&quot;:null}" stroke-linecap="butt"/></g><path d="M231.25006,183.75003c0,0 0.25189,-5.36151 1.79487,-7.47401c1.18122,-1.61722 4.64232,-3.26669 6.48709,-3.15297c1.82839,0.33788 2.22257,6.14718 3.35667,6.99455c0.99395,0.74265 7.11137,1.88243 7.11137,1.88243" data-paper-data="{&quot;origPos&quot;:null}" stroke="#ffffff" stroke-width="4" stroke-linecap="round"/></g></g></svg>