<svg version="1.1" xmlns="http://www.w3.org/2000/svg" xmlns:xlink="http://www.w3.org/1999/xlink" width="66.32304" height="66.32305"><g transform="translate(-206.85432,-146.81774)"><g data-paper-data="{&quot;isPaintingLayer&quot;:true}" fill="none" fill-rule="nonzero" stroke="#ffffff" stroke-width="none" stroke-linecap="none" stroke-linejoin="miter" stroke-miterlimit="10" stroke-dasharray="" stroke-dashoffset="0" font-family="none" font-weight="none" font-size="none" text-anchor="none" style="mix-blend-mode: normal"><path d="M240.01585,213.1408c-18.3146,0 -33.16152,-14.84691 -33.16152,-33.16152c0,-18.31461 14.84692,-33.16153 33.16152,-33.16153c18.3146,0 33.16152,14.84693 33.16152,33.16153c0,18.3146 -14.84692,33.16152 -33.16152,33.16152z" data-paper-data="{&quot;origPos&quot;:null,&quot;index&quot;:null}" stroke-width="0" stroke-linecap="butt"/><path d="M241.63158,199.00005c0,0 -4.31032,0.82895 -5.09868,-1.86639c-0.78088,-2.66974 1.15422,-8.21139 3.4581,-8.03993c1.67643,0.04398 0.13486,6.94482 -0.51322,9.41704c-1.02045,1.95357 1.7538,9.08928 1.7538,9.08928" data-paper-data="{&quot;origPos&quot;:null,&quot;index&quot;:null}" stroke-width="4" stroke-linecap="round"/><path d="M239.91002,169.81301c1.07167,3.69335 0.65453,7.65574 0.62488,9.64804c-0.02868,1.92705 -0.64143,8.76753 -0.64143,8.76753" data-paper-data="{&quot;origPos&quot;:null,&quot;index&quot;:null}" stroke-width="4" stroke-linecap="round"/><path d="M239.43161,169.05639c-3.81076,0 -6.9,-2.89292 -6.9,-6.46152c0,-3.56859 3.08924,-6.46152 6.9,-6.46152c3.81076,0 6.9,2.89292 6.9,6.46152c0,3.56859 -3.08924,6.46152 -6.9,6.46152z" data-paper-data="{&quot;origPos&quot;:null,&quot;index&quot;:null}" stroke-width="4" stroke-linecap="butt"/><path d="M230.03163,182.00003c0,0 6.11742,-1.13978 7.11137,-1.88243c1.1341,-0.84737 1.52828,-6.65667 3.35667,-6.99455c1.84477,-0.11372 5.30587,1.53575 6.48709,3.15297c1.54298,2.1125 1.79487,7.47401 1.79487,7.47401" data-paper-data="{&quot;origPos&quot;:null,&quot;index&quot;:null}" stroke-width="4" stroke-linecap="round"/></g></g></svg>