<svg version="1.1" xmlns="http://www.w3.org/2000/svg" xmlns:xlink="http://www.w3.org/1999/xlink" width="66.32306" height="66.32306"><g transform="translate(-206.8543,-146.81773)"><g data-paper-data="{&quot;isPaintingLayer&quot;:true}" fill="none" fill-rule="nonzero" stroke="#ffffff" stroke-width="none" stroke-linecap="none" stroke-linejoin="miter" stroke-miterlimit="10" stroke-dasharray="" stroke-dashoffset="0" font-family="none" font-weight="none" font-size="none" text-anchor="none" style="mix-blend-mode: normal"><path d="M240.01583,213.14079c-18.31461,0 -33.16153,-14.84693 -33.16153,-33.16153c0,-18.31461 14.84693,-33.16153 33.16153,-33.16153c18.31461,0 33.16153,14.84693 33.16153,33.16153c0,18.31461 -14.84693,33.16153 -33.16153,33.16153z" data-paper-data="{&quot;origPos&quot;:null,&quot;index&quot;:null}" stroke-width="0" stroke-linecap="butt"/><path d="M233.43163,203.4c0,0 -0.67425,-5.83571 0.3462,-7.78928c1.44808,-2.77222 4.58965,-8.57306 6.94655,-6.51704c2.09612,1.82854 1.62769,5.37019 2.40857,8.03993c0.78836,2.69534 3.49868,5.76639 3.49868,5.76639" data-paper-data="{&quot;origPos&quot;:null,&quot;index&quot;:null}" stroke-width="4" stroke-linecap="round"/><g data-paper-data="{&quot;origPos&quot;:null,&quot;index&quot;:null}" stroke-width="4"><path d="M239.91004,168.57463c1.07167,3.94398 0.65453,8.17525 0.62488,10.30275c-0.02868,2.05783 -0.8081,9.18452 -0.8081,9.18452" data-paper-data="{&quot;origPos&quot;:null}" stroke-linecap="round"/><path d="M239.43165,167.76667c-3.81076,0 -6.9,-3.08924 -6.9,-6.9c0,-3.81076 3.08924,-6.9 6.9,-6.9c3.81076,0 6.9,3.08924 6.9,6.9c0,3.81076 -3.08924,6.9 -6.9,6.9z" data-paper-data="{&quot;origPos&quot;:null}" stroke-linecap="butt"/></g><path d="M230.03162,182.00001c0,0 6.11742,-1.13978 7.11137,-1.88243c1.1341,-0.84737 1.52828,-6.65667 3.35667,-6.99455c1.84477,-0.11372 5.30587,1.53575 6.48709,3.15297c1.54298,2.1125 1.79487,7.47401 1.79487,7.47401" data-paper-data="{&quot;origPos&quot;:null,&quot;index&quot;:null}" stroke-width="4" stroke-linecap="round"/></g></g></svg>