<svg version="1.1" xmlns="http://www.w3.org/2000/svg" xmlns:xlink="http://www.w3.org/1999/xlink" width="66.32304" height="66.32305"><g transform="translate(-206.85432,-146.81774)"><g data-paper-data="{&quot;isPaintingLayer&quot;:true}" fill="none" fill-rule="nonzero" stroke="#ffffff" stroke-width="none" stroke-linecap="none" stroke-linejoin="miter" stroke-miterlimit="10" stroke-dasharray="" stroke-dashoffset="0" font-family="none" font-weight="none" font-size="none" text-anchor="none" style="mix-blend-mode: normal"><path d="M240.01585,213.1408c-18.3146,0 -33.16152,-14.84691 -33.16152,-33.16152c0,-18.31461 14.84692,-33.16153 33.16152,-33.16153c18.3146,0 33.16152,14.84693 33.16152,33.16153c0,18.3146 -14.84692,33.16152 -33.16152,33.16152z" data-paper-data="{&quot;origPos&quot;:null,&quot;index&quot;:null}" stroke-width="0" stroke-linecap="butt"/><path d="M238.73163,207.10002c0,0 -2.47425,-6.63571 -1.4538,-8.58928c0.64808,-2.47222 1.35632,-11.13973 3.21322,-9.58371c1.42945,1.66188 -4.03898,5.73686 -3.2581,8.4066c0.78836,2.69534 6.89868,2.26639 6.89868,2.26639" data-paper-data="{&quot;origPos&quot;:null,&quot;index&quot;:null}" stroke-width="4" stroke-linecap="round"/><g data-paper-data="{&quot;index&quot;:null}" stroke-width="4"><path d="M239.91003,170.67034c1.07167,3.51984 1.48787,7.29608 1.45822,9.19478c-0.02868,1.83652 -0.97477,8.53013 -0.97477,8.53013" data-paper-data="{&quot;origPos&quot;:null}" stroke-linecap="round"/><path d="M239.43162,169.94927c-3.81076,0 -6.9,-2.75701 -6.9,-6.15796c0,-3.40094 3.08924,-6.15796 6.9,-6.15796c3.81076,0 6.9,2.75701 6.9,6.15796c0,3.40094 -3.08924,6.15796 -6.9,6.15796z" data-paper-data="{&quot;origPos&quot;:null}" stroke-linecap="butt"/></g><path d="M234.15665,184.00004c0,0 4.11742,-3.76478 5.11137,-4.50743c1.1341,-0.84737 -0.59672,-6.03167 1.23167,-6.36955c1.84477,-0.11372 3.44411,2.66547 4.11209,4.90297c0.74834,2.50668 -0.20513,7.09901 -0.20513,7.09901" data-paper-data="{&quot;origPos&quot;:null,&quot;index&quot;:null}" stroke-width="4" stroke-linecap="round"/></g></g></svg>