<svg version="1.1" xmlns="http://www.w3.org/2000/svg" xmlns:xlink="http://www.w3.org/1999/xlink" width="66.32304" height="66.32305"><g transform="translate(-206.85432,-146.81774)"><g data-paper-data="{&quot;isPaintingLayer&quot;:true}" fill="none" fill-rule="nonzero" stroke="none" stroke-width="none" stroke-linecap="none" stroke-linejoin="miter" stroke-miterlimit="10" stroke-dasharray="" stroke-dashoffset="0" font-family="none" font-weight="none" font-size="none" text-anchor="none" style="mix-blend-mode: normal"><path d="M206.85433,179.97928c0,-18.3146 14.84692,-33.16153 33.16152,-33.16153c18.3146,0 33.16152,14.84692 33.16152,33.16153c0,18.31461 -14.84692,33.16152 -33.16152,33.16152c-18.3146,0 -33.16152,-14.84692 -33.16152,-33.16152z" data-paper-data="{&quot;origPos&quot;:null}" stroke="none" stroke-width="0" stroke-linecap="butt"/><path d="M234.68928,202.72285c0,0 5.78513,-1.45851 4.76468,-3.41208c-0.44808,-1.87222 -2.25632,-10.17306 0.58678,-10.21704c2.30388,-0.17146 3.63898,4.97019 3.6581,7.73993c0.01164,2.19534 -1.70303,5.06421 -1.70303,5.06421" data-paper-data="{&quot;origPos&quot;:null}" stroke="#ffffff" stroke-width="4" stroke-linecap="round"/><path d="M240.30487,188.06192c0,0 -0.77942,-7.12669 -0.8081,-9.18452c-0.02965,-2.1275 -0.44679,-6.35877 0.62488,-10.30275" data-paper-data="{&quot;origPos&quot;:null}" stroke="#ffffff" stroke-width="4" stroke-linecap="round"/><path d="M233.70006,160.86667c0,-3.81076 3.08924,-6.9 6.9,-6.9c3.81076,0 6.9,3.08924 6.9,6.9c0,3.81076 -3.08924,6.9 -6.9,6.9c-3.81076,0 -6.9,-3.08924 -6.9,-6.9z" data-paper-data="{&quot;origPos&quot;:null}" stroke="#ffffff" stroke-width="4" stroke-linecap="butt"/><path d="M229.10442,164.59879c0,0 1.3508,5.36575 2.59161,7.63481c3.74972,1.25346 5.99123,0.77572 7.836,0.88944c1.82839,0.33788 3.69104,-0.59417 7.8469,-0.35115c-0.36584,-3.79 -3.91263,-8.40133 -3.91263,-8.40133" data-paper-data="{&quot;origPos&quot;:null}" stroke="#ffffff" stroke-width="4" stroke-linecap="round"/></g></g></svg>