<svg version="1.1" xmlns="http://www.w3.org/2000/svg" xmlns:xlink="http://www.w3.org/1999/xlink" width="66.32304" height="66.32305"><g transform="translate(-206.85432,-146.81774)"><g data-paper-data="{&quot;isPaintingLayer&quot;:true}" fill="none" fill-rule="nonzero" stroke="#ffffff" stroke-width="none" stroke-linecap="none" stroke-linejoin="miter" stroke-miterlimit="10" stroke-dasharray="" stroke-dashoffset="0" font-family="none" font-weight="none" font-size="none" text-anchor="none" style="mix-blend-mode: normal"><path d="M240.01585,213.1408c-18.3146,0 -33.16152,-14.84691 -33.16152,-33.16152c0,-18.31461 14.84692,-33.16153 33.16152,-33.16153c18.3146,0 33.16152,14.84693 33.16152,33.16153c0,18.3146 -14.84692,33.16152 -33.16152,33.16152z" data-paper-data="{&quot;origPos&quot;:null,&quot;index&quot;:null}" stroke-width="0" stroke-linecap="butt"/><path d="M239.23161,199.60003c0,0 -3.21032,0.42895 -3.99868,-2.26639c-0.78088,-2.66974 2.45422,-8.24472 4.7581,-8.07326c2.8431,0.04398 0.13486,6.77815 -0.51322,9.25037c-1.02045,1.95357 3.0538,8.38928 3.0538,8.38928" data-paper-data="{&quot;origPos&quot;:null,&quot;index&quot;:null}" stroke-width="4" stroke-linecap="round"/><path d="M239.91004,168.95569c1.07167,3.86686 0.65453,8.0154 0.62488,10.1013c-0.02868,2.01759 -0.8081,9.00493 -0.8081,9.00493" data-paper-data="{&quot;origPos&quot;:null,&quot;index&quot;:null}" stroke-width="4" stroke-linecap="round"/><path d="M239.43162,168.16351c-3.81076,0 -6.9,-3.02883 -6.9,-6.76508c0,-3.73624 3.08924,-6.76508 6.9,-6.76508c3.81076,0 6.9,3.02883 6.9,6.76508c0,3.73624 -3.08924,6.76508 -6.9,6.76508z" data-paper-data="{&quot;origPos&quot;:null,&quot;index&quot;:null}" stroke-width="4" stroke-linecap="butt"/><path d="M229.65664,180.25003c0,0 5.49242,0.36022 6.48637,-0.38243c1.1341,-0.84737 2.52828,-6.40667 4.35667,-6.74455c1.84477,-0.11372 6.43087,0.53575 7.61209,2.15297c1.54298,2.1125 2.66987,7.84901 2.66987,7.84901" data-paper-data="{&quot;origPos&quot;:null,&quot;index&quot;:null}" stroke-width="4" stroke-linecap="round"/></g></g></svg>