<svg version="1.1" xmlns="http://www.w3.org/2000/svg" xmlns:xlink="http://www.w3.org/1999/xlink" width="66.32304" height="66.32305"><g transform="translate(-206.85432,-146.81774)"><g data-paper-data="{&quot;isPaintingLayer&quot;:true}" fill="none" fill-rule="nonzero" stroke="#ffffff" stroke-width="none" stroke-linecap="none" stroke-linejoin="miter" stroke-miterlimit="10" stroke-dasharray="" stroke-dashoffset="0" font-family="none" font-weight="none" font-size="none" text-anchor="none" style="mix-blend-mode: normal"><path d="M240.01585,213.1408c-18.3146,0 -33.16152,-14.84691 -33.16152,-33.16152c0,-18.31461 14.84692,-33.16153 33.16152,-33.16153c18.3146,0 33.16152,14.84693 33.16152,33.16153c0,18.3146 -14.84692,33.16152 -33.16152,33.16152z" data-paper-data="{&quot;origPos&quot;:null,&quot;index&quot;:null}" stroke-width="0" stroke-linecap="butt"/><path d="M233.73161,205.10002c0,0 -0.17425,-6.23571 0.8462,-8.18928c1.44808,-2.77222 3.28965,-9.87306 5.64655,-7.81704c1.42945,1.66187 0.92769,5.37019 1.70857,8.03993c0.78836,2.69534 4.49868,4.26639 4.49868,4.26639" data-paper-data="{&quot;origPos&quot;:null,&quot;index&quot;:null}" stroke-width="4" stroke-linecap="round"/><g data-paper-data="{&quot;origPos&quot;:null,&quot;index&quot;:null}" stroke-width="4"><path d="M239.91005,168.95569c1.07167,3.86686 0.65453,8.0154 0.62488,10.1013c-0.02868,2.01759 -0.8081,9.00493 -0.8081,9.00493" data-paper-data="{&quot;origPos&quot;:null}" stroke-linecap="round"/><path d="M239.43163,168.16351c-3.81076,0 -6.9,-3.02883 -6.9,-6.76508c0,-3.73624 3.08924,-6.76508 6.9,-6.76508c3.81076,0 6.9,3.02883 6.9,6.76508c0,3.73624 -3.08924,6.76508 -6.9,6.76508z" data-paper-data="{&quot;origPos&quot;:null}" stroke-linecap="butt"/></g><path d="M234.15662,184.00003c0,0 4.11742,-3.76478 5.11137,-4.50743c1.1341,-0.84737 -0.59672,-6.03167 1.23167,-6.36955c1.84477,-0.11372 3.44411,2.66547 4.11209,4.90297c0.74834,2.50668 -0.20513,7.09901 -0.20513,7.09901" data-paper-data="{&quot;origPos&quot;:null,&quot;index&quot;:null}" stroke-width="4" stroke-linecap="round"/></g></g></svg>