<svg version="1.1" xmlns="http://www.w3.org/2000/svg" xmlns:xlink="http://www.w3.org/1999/xlink" width="66.32304" height="66.32305"><g transform="translate(-206.85431,-146.81773)"><g data-paper-data="{&quot;isPaintingLayer&quot;:true}" fill="none" fill-rule="nonzero" stroke="none" stroke-width="none" stroke-linecap="none" stroke-linejoin="miter" stroke-miterlimit="10" stroke-dasharray="" stroke-dashoffset="0" font-family="none" font-weight="none" font-size="none" text-anchor="none" style="mix-blend-mode: normal"><path d="M206.85432,179.97927c0,-18.3146 14.84692,-33.16153 33.16152,-33.16153c18.3146,0 33.16152,14.84692 33.16152,33.16153c0,18.31461 -14.84692,33.16152 -33.16152,33.16152c-18.3146,0 -33.16152,-14.84692 -33.16152,-33.16152z" data-paper-data="{&quot;origPos&quot;:null}" stroke="none" stroke-width="0" stroke-linecap="butt"/><path d="M234.40019,204.70008c0,0 2.4293,-5.09671 2.6538,-7.28928c0.17955,-1.75357 -0.68965,-8.27306 2.15345,-8.31704c2.30388,-0.17146 5.37231,4.37019 5.79143,7.03993c0.01164,2.19534 0.30132,6.36639 0.30132,6.36639" data-paper-data="{&quot;origPos&quot;:null}" stroke="#ffffff" stroke-width="4" stroke-linecap="round"/><g data-paper-data="{&quot;origPos&quot;:null}" stroke="#ffffff" stroke-width="4"><path d="M239.13817,188.22857c0,0 -0.77942,-7.12669 -0.8081,-9.18452c-0.02965,-2.1275 -0.44679,-6.35877 0.62488,-10.30275" data-paper-data="{&quot;origPos&quot;:null}" stroke-linecap="round"/><path d="M232.53336,161.03334c0,-3.81076 3.08924,-6.9 6.9,-6.9c3.81076,0 6.9,3.08924 6.9,6.9c0,3.81076 -3.08924,6.9 -6.9,6.9c-3.81076,0 -6.9,-3.08924 -6.9,-6.9z" data-paper-data="{&quot;origPos&quot;:null}" stroke-linecap="butt"/></g><path d="M229.25005,183.12502c0,0 1.12689,-5.73651 2.66987,-7.84901c1.18122,-1.61722 5.76732,-2.26669 7.61209,-2.15297c1.82839,0.33788 3.22257,5.89718 4.35667,6.74455c0.99395,0.74265 6.48637,0.38243 6.48637,0.38243" data-paper-data="{&quot;origPos&quot;:null}" stroke="#ffffff" stroke-width="4" stroke-linecap="round"/></g></g></svg>