<svg version="1.1" xmlns="http://www.w3.org/2000/svg" xmlns:xlink="http://www.w3.org/1999/xlink" width="66.32306" height="66.32306"><g transform="translate(-206.85432,-146.81775)"><g data-paper-data="{&quot;isPaintingLayer&quot;:true}" fill="none" fill-rule="nonzero" stroke="none" stroke-width="none" stroke-linecap="none" stroke-linejoin="miter" stroke-miterlimit="10" stroke-dasharray="" stroke-dashoffset="0" font-family="none" font-weight="none" font-size="none" text-anchor="none" style="mix-blend-mode: normal"><path d="M206.85433,179.97929c0,-18.3146 14.84692,-33.16153 33.16153,-33.16153c18.3146,0 33.16153,14.84692 33.16153,33.16153c0,18.3146 -14.84692,33.16153 -33.16153,33.16153c-18.3146,0 -33.16153,-14.84692 -33.16153,-33.16153z" data-paper-data="{&quot;origPos&quot;:null}" stroke="none" stroke-width="0" stroke-linecap="butt"/><path d="M235.96856,202.74894c0,0 -0.31144,-3.97758 0.47692,-6.67292c0.78088,-2.66974 0.76571,-5.15377 2.86183,-6.98231c2.3569,-2.05602 3.53432,1.78067 4.9824,4.55289c0.56719,2.70901 0.79947,9.45125 0.79947,9.45125" data-paper-data="{&quot;origPos&quot;:null}" stroke="#ffffff" stroke-width="4" stroke-linecap="round"/><g data-paper-data="{&quot;origPos&quot;:null}" stroke="#ffffff" stroke-width="4"><path d="M240.30487,188.06193c0,0 -0.77942,-7.12669 -0.8081,-9.18452c-0.02965,-2.1275 -0.44679,-6.35877 0.62488,-10.30275" data-paper-data="{&quot;origPos&quot;:null}" stroke-linecap="round"/><path d="M233.70004,160.86667c0,-3.81076 3.08924,-6.9 6.9,-6.9c3.81076,0 6.9,3.08924 6.9,6.9c0,3.81076 -3.08924,6.9 -6.9,6.9c-3.81076,0 -6.9,-3.08924 -6.9,-6.9z" data-paper-data="{&quot;origPos&quot;:null}" stroke-linecap="butt"/></g><path d="M233.66748,186.46962c0,0 -0.50355,-5.36151 1.03943,-7.47401c1.18122,-1.61722 2.98035,-5.98628 4.82512,-5.87256c1.82839,0.33788 2.97801,3.72977 3.50776,5.33258c0.84286,2.25353 1.82328,7.17051 1.82328,7.17051" data-paper-data="{&quot;origPos&quot;:null}" stroke="#ffffff" stroke-width="4" stroke-linecap="round"/></g></g></svg>