<svg version="1.1" xmlns="http://www.w3.org/2000/svg" xmlns:xlink="http://www.w3.org/1999/xlink" width="66.32304" height="66.32305"><g transform="translate(-206.85431,-146.81773)"><g data-paper-data="{&quot;isPaintingLayer&quot;:true}" fill="none" fill-rule="nonzero" stroke="none" stroke-width="none" stroke-linecap="none" stroke-linejoin="miter" stroke-miterlimit="10" stroke-dasharray="" stroke-dashoffset="0" font-family="none" font-weight="none" font-size="none" text-anchor="none" style="mix-blend-mode: normal"><path d="M206.85432,179.97927c0,-18.3146 14.84692,-33.16153 33.16152,-33.16153c18.3146,0 33.16152,14.84692 33.16152,33.16153c0,18.31461 -14.84692,33.16152 -33.16152,33.16152c-18.3146,0 -33.16152,-14.84692 -33.16152,-33.16152z" data-paper-data="{&quot;origPos&quot;:null}" stroke="none" stroke-width="0" stroke-linecap="butt"/><path d="M234.40007,200.40003c0,0 5.11032,-0.57105 5.89868,-3.26639c0.78088,-2.66974 -1.25422,-6.87806 -0.49143,-8.03993c1.52357,-1.55602 3.59847,6.64482 4.24655,9.11704c1.02045,1.95357 0.7462,8.38928 0.7462,8.38928" data-paper-data="{&quot;origPos&quot;:null}" stroke="#ffffff" stroke-width="4" stroke-linecap="round"/><g data-paper-data="{&quot;origPos&quot;:null}" stroke="#ffffff" stroke-width="4"><path d="M240.13821,188.22857c0,0 -0.61275,-6.84048 -0.64143,-8.76753c-0.02965,-1.9923 -0.44679,-5.95469 0.62488,-9.64804" data-paper-data="{&quot;origPos&quot;:null}" stroke-linecap="round"/><path d="M233.70007,162.59487c0,-3.5686 3.08924,-6.46152 6.9,-6.46152c3.81076,0 6.9,2.89293 6.9,6.46152c0,3.5686 -3.08924,6.46152 -6.9,6.46152c-3.81076,0 -6.9,-2.89293 -6.9,-6.46152z" data-paper-data="{&quot;origPos&quot;:null}" stroke-linecap="butt"/></g><path d="M238.37504,184.75004c0,0 -1.36535,-3.11292 -1.20513,-5.72401c0.16798,-2.7375 0.4535,-6.07456 2.36209,-5.90297c1.82839,0.33788 -0.11964,4.71168 -0.26833,6.11955c-0.1159,1.09737 1.23637,5.13243 1.23637,5.13243" data-paper-data="{&quot;origPos&quot;:null}" stroke="#ffffff" stroke-width="4" stroke-linecap="round"/></g></g></svg>