<svg version="1.1" xmlns="http://www.w3.org/2000/svg" xmlns:xlink="http://www.w3.org/1999/xlink" width="66.32304" height="66.32305"><g transform="translate(-206.85431,-146.81773)"><g data-paper-data="{&quot;isPaintingLayer&quot;:true}" fill="none" fill-rule="nonzero" stroke="none" stroke-width="none" stroke-linecap="none" stroke-linejoin="miter" stroke-miterlimit="10" stroke-dasharray="" stroke-dashoffset="0" font-family="none" font-weight="none" font-size="none" text-anchor="none" style="mix-blend-mode: normal"><path d="M206.85432,179.97927c0,-18.3146 14.84692,-33.16153 33.16152,-33.16153c18.3146,0 33.16152,14.84692 33.16152,33.16153c0,18.31461 -14.84692,33.16152 -33.16152,33.16152c-18.3146,0 -33.16152,-14.84692 -33.16152,-33.16152z" data-paper-data="{&quot;origPos&quot;:null}" stroke="none" stroke-width="0" stroke-linecap="butt"/><path d="M233.60008,201.40001c0,0 3.71032,-1.57105 4.49868,-4.26639c0.78088,-2.66974 0.27912,-6.37806 1.70857,-8.03993c2.3569,-2.05602 4.19847,5.04482 5.64655,7.81704c1.02045,1.95357 0.8462,8.18928 0.8462,8.18928" data-paper-data="{&quot;origPos&quot;:null}" stroke="#ffffff" stroke-width="4" stroke-linecap="round"/><g data-paper-data="{&quot;origPos&quot;:null}" stroke="#ffffff" stroke-width="4"><path d="M240.30486,188.06191c0,0 -0.77942,-6.98734 -0.8081,-9.00493c-0.02965,-2.0859 -0.44679,-6.23444 0.62488,-10.1013" data-paper-data="{&quot;origPos&quot;:null}" stroke-linecap="round"/><path d="M233.70006,161.39843c0,-3.73625 3.08924,-6.76508 6.9,-6.76508c3.81076,0 6.9,3.02884 6.9,6.76508c0,3.73625 -3.08924,6.76508 -6.9,6.76508c-3.81076,0 -6.9,-3.02884 -6.9,-6.76508z" data-paper-data="{&quot;origPos&quot;:null}" stroke-linecap="butt"/></g><path d="M235.62507,185.12502c0,0 -0.95347,-4.59233 -0.20513,-7.09901c0.66798,-2.2375 2.26732,-5.01669 4.11209,-4.90297c1.82839,0.33788 0.09757,5.52218 1.23167,6.36955c0.99395,0.74265 5.11137,4.50743 5.11137,4.50743" data-paper-data="{&quot;origPos&quot;:null}" stroke="#ffffff" stroke-width="4" stroke-linecap="round"/></g></g></svg>