<svg version="1.1" xmlns="http://www.w3.org/2000/svg" xmlns:xlink="http://www.w3.org/1999/xlink" width="66.32304" height="66.32305"><g transform="translate(-206.85432,-146.81774)"><g data-paper-data="{&quot;isPaintingLayer&quot;:true}" fill="none" fill-rule="nonzero" stroke="none" stroke-width="none" stroke-linecap="none" stroke-linejoin="miter" stroke-miterlimit="10" stroke-dasharray="" stroke-dashoffset="0" font-family="none" font-weight="none" font-size="none" text-anchor="none" style="mix-blend-mode: normal"><path d="M240.01585,213.1408c-18.3146,0 -33.16152,-14.84691 -33.16152,-33.16152c0,-18.31461 14.84692,-33.16153 33.16152,-33.16153c18.3146,0 33.16152,14.84693 33.16152,33.16153c0,18.3146 -14.84692,33.16152 -33.16152,33.16152z" data-paper-data="{&quot;origPos&quot;:null,&quot;index&quot;:null}" stroke="none" stroke-width="0" stroke-linecap="butt"/><path d="M237.43153,202.20006c0,0 -1.11032,-3.17105 -1.09868,-5.36639c0.01912,-2.76974 1.35422,-7.91139 3.6581,-7.73993c2.8431,0.04398 1.03486,8.34482 0.58678,10.21704c-1.02045,1.95357 3.2538,7.18928 3.2538,7.18928" data-paper-data="{&quot;origPos&quot;:null,&quot;index&quot;:null}" stroke="#ffffff" stroke-width="4" stroke-linecap="round"/><path d="M239.91005,168.57465c1.07167,3.94398 0.65453,8.17525 0.62488,10.30275c-0.02868,2.05783 -0.8081,9.18452 -0.8081,9.18452" data-paper-data="{&quot;origPos&quot;:null,&quot;index&quot;:null}" stroke="#ffffff" stroke-width="4" stroke-linecap="round"/><path d="M239.43164,167.76668c-3.81076,0 -6.9,-3.08924 -6.9,-6.9c0,-3.81076 3.08924,-6.9 6.9,-6.9c3.81076,0 6.9,3.08924 6.9,6.9c0,3.81076 -3.08924,6.9 -6.9,6.9z" data-paper-data="{&quot;origPos&quot;:null,&quot;index&quot;:null}" stroke="#ffffff" stroke-width="4" stroke-linecap="butt"/><path d="M250.92727,164.59879c0,0 -1.3508,5.36576 -2.5916,7.63481c-3.74972,1.25346 -5.99123,0.77572 -7.836,0.88944c-1.82839,0.33788 -3.84213,2.42759 -7.998,2.67061c0.36585,-3.79 2.70392,-8.85459 2.70392,-8.85459" data-paper-data="{&quot;origPos&quot;:null,&quot;index&quot;:null}" stroke="#ffffff" stroke-width="4" stroke-linecap="round"/></g></g></svg>