<svg version="1.1" xmlns="http://www.w3.org/2000/svg" xmlns:xlink="http://www.w3.org/1999/xlink" width="66.32304" height="66.32305"><g transform="translate(-206.85432,-146.81774)"><g data-paper-data="{&quot;isPaintingLayer&quot;:true}" fill="none" fill-rule="nonzero" stroke="#ffffff" stroke-width="none" stroke-linecap="none" stroke-linejoin="miter" stroke-miterlimit="10" stroke-dasharray="" stroke-dashoffset="0" font-family="none" font-weight="none" font-size="none" text-anchor="none" style="mix-blend-mode: normal"><path d="M240.01585,213.1408c-18.3146,0 -33.16152,-14.84691 -33.16152,-33.16152c0,-18.31461 14.84692,-33.16153 33.16152,-33.16153c18.3146,0 33.16152,14.84693 33.16152,33.16153c0,18.3146 -14.84692,33.16152 -33.16152,33.16152z" data-paper-data="{&quot;origPos&quot;:null,&quot;index&quot;:null}" stroke-width="0" stroke-linecap="butt"/><path d="M235.23162,206.60004c0,0 -0.27425,-6.43571 0.7462,-8.38928c0.64808,-2.47222 2.72298,-10.67306 4.24655,-9.11704c0.76279,1.16187 -1.27231,5.37019 -0.49143,8.03993c0.78836,2.69534 5.89868,3.26639 5.89868,3.26639" data-paper-data="{&quot;origPos&quot;:null,&quot;index&quot;:null}" stroke-width="4" stroke-linecap="round"/><g data-paper-data="{&quot;origPos&quot;:null,&quot;index&quot;:null}" stroke-width="4"><path d="M239.91003,169.813c1.07167,3.69335 0.65453,7.65574 0.62488,9.64804c-0.02868,1.92705 -0.64143,8.76753 -0.64143,8.76753" data-paper-data="{&quot;origPos&quot;:null}" stroke-linecap="round"/><path d="M239.43162,169.05639c-3.81076,0 -6.9,-2.89292 -6.9,-6.46152c0,-3.56859 3.08924,-6.46152 6.9,-6.46152c3.81076,0 6.9,2.89292 6.9,6.46152c0,3.56859 -3.08924,6.46152 -6.9,6.46152z" data-paper-data="{&quot;origPos&quot;:null}" stroke-linecap="butt"/></g><path d="M239.53165,184.37505c0,0 1.35227,-4.03506 1.23637,-5.13243c-0.14869,-1.40787 -2.09672,-5.78167 -0.26833,-6.11955c1.90859,-0.17159 2.19411,3.16547 2.36209,5.90297c0.16022,2.61109 -1.20513,5.72401 -1.20513,5.72401" data-paper-data="{&quot;origPos&quot;:null,&quot;index&quot;:null}" stroke-width="4" stroke-linecap="round"/></g></g></svg>