<svg version="1.1" xmlns="http://www.w3.org/2000/svg" xmlns:xlink="http://www.w3.org/1999/xlink" width="66.32306" height="66.32306"><g transform="translate(-206.85433,-146.81776)"><g data-paper-data="{&quot;isPaintingLayer&quot;:true}" fill="none" fill-rule="nonzero" stroke="none" stroke-width="none" stroke-linecap="none" stroke-linejoin="miter" stroke-miterlimit="10" stroke-dasharray="" stroke-dashoffset="0" font-family="none" font-weight="none" font-size="none" text-anchor="none" style="mix-blend-mode: normal"><path d="M240.01587,213.14083c-18.31461,0 -33.16153,-14.84693 -33.16153,-33.16153c0,-18.31461 14.84693,-33.16153 33.16153,-33.16153c18.31461,0 33.16153,14.84693 33.16153,33.16153c0,18.31461 -14.84693,33.16153 -33.16153,33.16153z" data-paper-data="{&quot;origPos&quot;:null,&quot;index&quot;:null}" stroke="none" stroke-width="0" stroke-linecap="butt"/><path d="M234.94254,203.09786c0,0 0.23228,-6.74224 0.79947,-9.45125c1.44808,-2.77222 2.6255,-6.60891 4.9824,-4.55289c2.09612,1.82854 2.08095,4.31257 2.86183,6.98231c0.78836,2.69534 0.47692,6.67292 0.47692,6.67292" data-paper-data="{&quot;origPos&quot;:null,&quot;index&quot;:null}" stroke="#ffffff" stroke-width="4" stroke-linecap="round"/><g data-paper-data="{&quot;origPos&quot;:null,&quot;index&quot;:null}" stroke="#ffffff" stroke-width="4"><path d="M239.91008,168.57467c1.07167,3.94398 0.65453,8.17525 0.62488,10.30275c-0.02868,2.05783 -0.8081,9.18452 -0.8081,9.18452" data-paper-data="{&quot;origPos&quot;:null}" stroke-linecap="round"/><path d="M239.43169,167.76668c-3.81076,0 -6.9,-3.08924 -6.9,-6.9c0,-3.81076 3.08924,-6.9 6.9,-6.9c3.81076,0 6.9,3.08924 6.9,6.9c0,3.81076 -3.08924,6.9 -6.9,6.9z" data-paper-data="{&quot;origPos&quot;:null}" stroke-linecap="butt"/></g><path d="M235.16865,185.62615c0,0 0.98042,-4.91698 1.82328,-7.17051c0.52975,-1.60281 1.67937,-4.9947 3.50776,-5.33258c1.84477,-0.11372 3.6439,4.25534 4.82512,5.87256c1.54298,2.1125 1.03943,7.47401 1.03943,7.47401" data-paper-data="{&quot;origPos&quot;:null,&quot;index&quot;:null}" stroke="#ffffff" stroke-width="4" stroke-linecap="round"/></g></g></svg>