<svg version="1.1" xmlns="http://www.w3.org/2000/svg" xmlns:xlink="http://www.w3.org/1999/xlink" width="66.32304" height="66.32305"><g transform="translate(-206.85431,-146.81773)"><g data-paper-data="{&quot;isPaintingLayer&quot;:true}" fill="none" fill-rule="nonzero" stroke="none" stroke-width="none" stroke-linecap="none" stroke-linejoin="miter" stroke-miterlimit="10" stroke-dasharray="" stroke-dashoffset="0" font-family="none" font-weight="none" font-size="none" text-anchor="none" style="mix-blend-mode: normal"><path d="M206.85432,179.97927c0,-18.3146 14.84692,-33.16153 33.16152,-33.16153c18.3146,0 33.16152,14.84692 33.16152,33.16153c0,18.31461 -14.84692,33.16152 -33.16152,33.16152c-18.3146,0 -33.16152,-14.84692 -33.16152,-33.16152z" data-paper-data="{&quot;origPos&quot;:null}" stroke="none" stroke-width="0" stroke-linecap="butt"/><path d="M237.50008,206.90002c0,0 4.07425,-6.43571 3.0538,-8.38928c-0.64808,-2.47222 -3.35632,-9.20639 -0.51322,-9.25037c2.30388,-0.17146 5.53898,5.40352 4.7581,8.07326c-0.78836,2.69534 -3.99868,2.26639 -3.99868,2.26639" data-paper-data="{&quot;origPos&quot;:null}" stroke="#ffffff" stroke-width="4" stroke-linecap="round"/><path d="M240.30487,188.06192c0,0 -0.77942,-6.98734 -0.8081,-9.00493c-0.02965,-2.0859 -0.44679,-6.23444 0.62488,-10.1013" data-paper-data="{&quot;origPos&quot;:null}" stroke="#ffffff" stroke-width="4" stroke-linecap="round"/><path d="M233.70007,161.39842c0,-3.73625 3.08924,-6.76508 6.9,-6.76508c3.81076,0 6.9,3.02884 6.9,6.76508c0,3.73625 -3.08924,6.76508 -6.9,6.76508c-3.81076,0 -6.9,-3.02884 -6.9,-6.76508z" data-paper-data="{&quot;origPos&quot;:null}" stroke="#ffffff" stroke-width="4" stroke-linecap="butt"/><path d="M229.25005,183.12502c0,0 1.12689,-5.73651 2.66987,-7.84901c1.18122,-1.61722 5.76732,-2.26669 7.61209,-2.15297c1.82839,0.33788 3.22257,5.89718 4.35667,6.74455c0.99395,0.74265 6.48637,0.38243 6.48637,0.38243" data-paper-data="{&quot;origPos&quot;:null}" stroke="#ffffff" stroke-width="4" stroke-linecap="round"/></g></g></svg>