<svg version="1.1" xmlns="http://www.w3.org/2000/svg" xmlns:xlink="http://www.w3.org/1999/xlink" width="66.32304" height="66.32305"><g transform="translate(-206.85433,-146.81775)"><g data-paper-data="{&quot;isPaintingLayer&quot;:true}" fill="none" fill-rule="nonzero" stroke="none" stroke-width="none" stroke-linecap="none" stroke-linejoin="miter" stroke-miterlimit="10" stroke-dasharray="" stroke-dashoffset="0" font-family="none" font-weight="none" font-size="none" text-anchor="none" style="mix-blend-mode: normal"><path d="M240.01586,213.14081c-18.3146,0 -33.16152,-14.84691 -33.16152,-33.16152c0,-18.31461 14.84692,-33.16153 33.16152,-33.16153c18.3146,0 33.16152,14.84693 33.16152,33.16153c0,18.3146 -14.84692,33.16152 -33.16152,33.16152z" data-paper-data="{&quot;origPos&quot;:null,&quot;index&quot;:null}" stroke="none" stroke-width="0" stroke-linecap="butt"/><path d="M237.41856,202.16853c0,0 -1.39726,-2.13955 -2.18562,-4.83489c-0.78088,-2.66974 2.45422,-8.24472 4.7581,-8.07326c2.8431,0.04398 2.55227,4.20965 1.90419,6.68187c-1.02045,1.95357 5.16903,7.02949 5.16903,7.02949" data-paper-data="{&quot;origPos&quot;:null,&quot;index&quot;:null}" stroke="#ffffff" stroke-width="4" stroke-linecap="round"/><path d="M239.91005,168.95571c1.07167,3.86686 0.65453,8.0154 0.62488,10.1013c-0.02868,2.01759 -0.8081,9.00493 -0.8081,9.00493" data-paper-data="{&quot;origPos&quot;:null,&quot;index&quot;:null}" stroke="#ffffff" stroke-width="4" stroke-linecap="round"/><path d="M239.43162,168.16352c-3.81076,0 -6.9,-3.02883 -6.9,-6.76508c0,-3.73624 3.08924,-6.76508 6.9,-6.76508c3.81076,0 6.9,3.02883 6.9,6.76508c0,3.73624 -3.08924,6.76508 -6.9,6.76508z" data-paper-data="{&quot;origPos&quot;:null,&quot;index&quot;:null}" stroke="#ffffff" stroke-width="4" stroke-linecap="butt"/><path d="M227.99468,170.73148c0,0 4.4348,3.2309 6.48637,4.15022c1.1341,-0.84737 4.19025,-1.42076 6.01864,-1.75864c1.84477,-0.11372 6.43087,0.53575 7.61209,2.15297c1.54298,2.1125 2.66987,7.84901 2.66987,7.84901" data-paper-data="{&quot;origPos&quot;:null,&quot;index&quot;:null}" stroke="#ffffff" stroke-width="4" stroke-linecap="round"/></g></g></svg>