<svg version="1.1" xmlns="http://www.w3.org/2000/svg" xmlns:xlink="http://www.w3.org/1999/xlink" width="66.32304" height="66.32305"><g transform="translate(-206.85431,-146.81773)"><g data-paper-data="{&quot;isPaintingLayer&quot;:true}" fill="none" fill-rule="nonzero" stroke="none" stroke-width="none" stroke-linecap="none" stroke-linejoin="miter" stroke-miterlimit="10" stroke-dasharray="" stroke-dashoffset="0" font-family="none" font-weight="none" font-size="none" text-anchor="none" style="mix-blend-mode: normal"><path d="M206.85432,179.97927c0,-18.3146 14.84692,-33.16153 33.16152,-33.16153c18.3146,0 33.16152,14.84692 33.16152,33.16153c0,18.31461 -14.84692,33.16152 -33.16152,33.16152c-18.3146,0 -33.16152,-14.84692 -33.16152,-33.16152z" data-paper-data="{&quot;origPos&quot;:null}" stroke="none" stroke-width="0" stroke-linecap="butt"/><path d="M235.90006,199.60001c0,0 6.11032,0.42895 6.89868,-2.26639c0.78088,-2.66974 -4.68755,-6.74472 -3.2581,-8.4066c1.8569,-1.55602 2.56514,7.11149 3.21322,9.58371c1.02045,1.95357 -1.4538,8.58928 -1.4538,8.58928" data-paper-data="{&quot;origPos&quot;:null}" stroke="#ffffff" stroke-width="4" stroke-linecap="round"/><g data-paper-data="{&quot;origPos&quot;:null}" stroke="#ffffff" stroke-width="4"><path d="M239.63821,188.39525c0,0 -0.94609,-6.69361 -0.97477,-8.53013c-0.02965,-1.8987 0.38655,-5.67494 1.45822,-9.19478" data-paper-data="{&quot;origPos&quot;:null}" stroke-linecap="round"/><path d="M233.70007,163.7913c0,-3.40095 3.08924,-6.15796 6.9,-6.15796c3.81076,0 6.9,2.75702 6.9,6.15796c0,3.40095 -3.08924,6.15796 -6.9,6.15796c-3.81076,0 -6.9,-2.75702 -6.9,-6.15796z" data-paper-data="{&quot;origPos&quot;:null}" stroke-linecap="butt"/></g><path d="M235.62504,185.12503c0,0 -0.95347,-4.59233 -0.20513,-7.09901c0.66798,-2.2375 2.26732,-5.01669 4.11209,-4.90297c1.82839,0.33788 0.09757,5.52218 1.23167,6.36955c0.99395,0.74265 5.11137,4.50743 5.11137,4.50743" data-paper-data="{&quot;origPos&quot;:null}" stroke="#ffffff" stroke-width="4" stroke-linecap="round"/></g></g></svg>