<svg version="1.1" xmlns="http://www.w3.org/2000/svg" xmlns:xlink="http://www.w3.org/1999/xlink" width="66.32304" height="66.32305"><g transform="translate(-206.85431,-146.81773)"><g data-paper-data="{&quot;isPaintingLayer&quot;:true}" fill="none" fill-rule="nonzero" stroke="none" stroke-width="none" stroke-linecap="none" stroke-linejoin="miter" stroke-miterlimit="10" stroke-dasharray="" stroke-dashoffset="0" font-family="none" font-weight="none" font-size="none" text-anchor="none" style="mix-blend-mode: normal"><path d="M206.85432,179.97927c0,-18.3146 14.84692,-33.16153 33.16152,-33.16153c18.3146,0 33.16152,14.84692 33.16152,33.16153c0,18.31461 -14.84692,33.16152 -33.16152,33.16152c-18.3146,0 -33.16152,-14.84692 -33.16152,-33.16152z" data-paper-data="{&quot;origPos&quot;:null}" stroke="none" stroke-width="0" stroke-linecap="butt"/><path d="M238.80011,207.60004c0,0 2.77425,-7.13571 1.7538,-9.08928c-0.64808,-2.47222 -2.18965,-9.37306 -0.51322,-9.41704c2.30388,-0.17146 4.23898,5.37019 3.4581,8.03993c-0.78836,2.69534 -5.09868,1.86639 -5.09868,1.86639" data-paper-data="{&quot;origPos&quot;:null}" stroke="#ffffff" stroke-width="4" stroke-linecap="round"/><path d="M240.13822,188.22858c0,0 -0.61275,-6.84048 -0.64143,-8.76753c-0.02965,-1.9923 -0.44679,-5.95469 0.62488,-9.64804" data-paper-data="{&quot;origPos&quot;:null}" stroke="#ffffff" stroke-width="4" stroke-linecap="round"/><path d="M233.70008,162.59487c0,-3.5686 3.08924,-6.46152 6.9,-6.46152c3.81076,0 6.9,2.89293 6.9,6.46152c0,3.5686 -3.08924,6.46152 -6.9,6.46152c-3.81076,0 -6.9,-2.89293 -6.9,-6.46152z" data-paper-data="{&quot;origPos&quot;:null}" stroke="#ffffff" stroke-width="4" stroke-linecap="butt"/><path d="M231.25006,183.75002c0,0 0.25189,-5.36151 1.79487,-7.47401c1.18122,-1.61722 4.64232,-3.26669 6.48709,-3.15297c1.82839,0.33788 2.22257,6.14718 3.35667,6.99455c0.99395,0.74265 7.11137,1.88243 7.11137,1.88243" data-paper-data="{&quot;origPos&quot;:null}" stroke="#ffffff" stroke-width="4" stroke-linecap="round"/></g></g></svg>