<svg version="1.1" xmlns="http://www.w3.org/2000/svg" xmlns:xlink="http://www.w3.org/1999/xlink" width="66.32304" height="66.32305"><g transform="translate(-206.85432,-146.81774)"><g data-paper-data="{&quot;isPaintingLayer&quot;:true}" fill="none" fill-rule="nonzero" stroke="#ffffff" stroke-width="none" stroke-linecap="none" stroke-linejoin="miter" stroke-miterlimit="10" stroke-dasharray="" stroke-dashoffset="0" font-family="none" font-weight="none" font-size="none" text-anchor="none" style="mix-blend-mode: normal"><path d="M240.01585,213.1408c-18.3146,0 -33.16152,-14.84691 -33.16152,-33.16152c0,-18.31461 14.84692,-33.16153 33.16152,-33.16153c18.3146,0 33.16152,14.84693 33.16152,33.16153c0,18.3146 -14.84692,33.16152 -33.16152,33.16152z" data-paper-data="{&quot;origPos&quot;:null,&quot;index&quot;:null}" stroke-width="0" stroke-linecap="butt"/><path d="M234.7315,202.50009c0,0 0.28968,-4.17105 0.30132,-6.36639c0.41912,-2.66974 3.48755,-7.21139 5.79143,-7.03993c2.8431,0.04398 1.9739,6.56347 2.15345,8.31704c0.2245,2.19257 2.6538,7.28928 2.6538,7.28928" data-paper-data="{&quot;origPos&quot;:null,&quot;index&quot;:null}" stroke-width="4" stroke-linecap="round"/><g data-paper-data="{&quot;origPos&quot;:null,&quot;index&quot;:null}" stroke-width="4"><path d="M241.07674,168.74131c1.07167,3.94398 0.65453,8.17525 0.62488,10.30275c-0.02868,2.05783 -0.8081,9.18452 -0.8081,9.18452" data-paper-data="{&quot;origPos&quot;:null}" stroke-linecap="round"/><path d="M240.59833,167.93335c-3.81076,0 -6.9,-3.08924 -6.9,-6.9c0,-3.81076 3.08924,-6.9 6.9,-6.9c3.81076,0 6.9,3.08924 6.9,6.9c0,3.81076 -3.08924,6.9 -6.9,6.9z" data-paper-data="{&quot;origPos&quot;:null}" stroke-linecap="butt"/></g><path d="M229.65664,180.25003c0,0 5.49242,0.36022 6.48637,-0.38243c1.1341,-0.84737 2.52828,-6.40667 4.35667,-6.74455c1.84477,-0.11372 6.43087,0.53575 7.61209,2.15297c1.54298,2.1125 2.66987,7.84901 2.66987,7.84901" data-paper-data="{&quot;origPos&quot;:null,&quot;index&quot;:null}" stroke-width="4" stroke-linecap="round"/></g></g></svg>