<svg version="1.1" xmlns="http://www.w3.org/2000/svg" xmlns:xlink="http://www.w3.org/1999/xlink" width="66.32304" height="66.32305"><g transform="translate(-206.85432,-146.81774)"><g data-paper-data="{&quot;isPaintingLayer&quot;:true}" fill="none" fill-rule="nonzero" stroke="none" stroke-width="none" stroke-linecap="none" stroke-linejoin="miter" stroke-miterlimit="10" stroke-dasharray="" stroke-dashoffset="0" font-family="none" font-weight="none" font-size="none" text-anchor="none" style="mix-blend-mode: normal"><path d="M206.85433,179.97928c0,-18.3146 14.84692,-33.16153 33.16152,-33.16153c18.3146,0 33.16152,14.84692 33.16152,33.16153c0,18.31461 -14.84692,33.16152 -33.16152,33.16152c-18.3146,0 -33.16152,-14.84692 -33.16152,-33.16152z" data-paper-data="{&quot;origPos&quot;:null}" stroke="none" stroke-width="0" stroke-linecap="butt"/><path d="M232.96744,202.97173c0,0 6.18948,-5.07592 5.16903,-7.02949c-0.64808,-2.47222 -0.93891,-6.63789 1.90419,-6.68187c2.30388,-0.17146 5.53898,5.40352 4.7581,8.07326c-0.78836,2.69534 -2.18562,4.83489 -2.18562,4.83489" data-paper-data="{&quot;origPos&quot;:null}" stroke="#ffffff" stroke-width="4" stroke-linecap="round"/><path d="M240.30488,188.06193c0,0 -0.77942,-6.98734 -0.8081,-9.00493c-0.02965,-2.0859 -0.44679,-6.23444 0.62488,-10.1013" data-paper-data="{&quot;origPos&quot;:null}" stroke="#ffffff" stroke-width="4" stroke-linecap="round"/><path d="M233.70008,161.39843c0,-3.73625 3.08924,-6.76508 6.9,-6.76508c3.81076,0 6.9,3.02884 6.9,6.76508c0,3.73625 -3.08924,6.76508 -6.9,6.76508c-3.81076,0 -6.9,-3.02884 -6.9,-6.76508z" data-paper-data="{&quot;origPos&quot;:null}" stroke="#ffffff" stroke-width="4" stroke-linecap="butt"/><path d="M229.25006,183.12503c0,0 1.12689,-5.73651 2.66987,-7.84901c1.18122,-1.61722 5.76732,-2.26669 7.61209,-2.15297c1.82839,0.33788 4.88454,0.91127 6.01864,1.75864c2.05157,-0.91932 6.48637,-4.15022 6.48637,-4.15022" data-paper-data="{&quot;origPos&quot;:null}" stroke="#ffffff" stroke-width="4" stroke-linecap="round"/></g></g></svg>